<?xml version="1.0" encoding="UTF-8" standalone="no"?>
<svg
   width="1404pt"
   height="1872pt"
   viewBox="0 0 1404 1872"
   version="1.1"
   id="svg45"
   xmlns="http://www.w3.org/2000/svg"
   xmlns:svg="http://www.w3.org/2000/svg">
  <defs
     id="defs45" />
  <path
     fill="none"
     stroke-width="2"
     stroke-linecap="round"
     stroke-linejoin="round"
     stroke="#000000"
     stroke-opacity="1"
     stroke-miterlimit="10"
     d="m 710.73437,59.9687 c 4.74624,-9.3553 -6.68383,8.8979 -8.78916,11.9415 -16.60574,27.5176 -9.84403,65.0794 -5.63323,92.851 0.21188,-0.628 0.73744,-1.137 1.05073,-1.7226"
     id="path1" />
  <path
     fill="none"
     stroke-width="2"
     stroke-linecap="round"
     stroke-linejoin="round"
     stroke="#000000"
     stroke-opacity="1"
     stroke-miterlimit="10"
     d="m 782.09375,102.8594 c 0.60805,-4.4255 0.0656,15.6296 -0.4804,19.3912 0.0541,6.5858 -4.06222,23.8021 -0.66794,26.0781"
     id="path2" />
  <path
     fill="none"
     stroke-width="2"
     stroke-linecap="round"
     stroke-linejoin="round"
     stroke="#000000"
     stroke-opacity="1"
     stroke-miterlimit="10"
     d="m 781.80469,65.8008 c -1.02323,-6.3541 -5.03465,2.7447 -0.37865,3.4301"
     id="path3" />
  <path
     fill="none"
     stroke-width="2"
     stroke-linecap="round"
     stroke-linejoin="round"
     stroke="#000000"
     stroke-opacity="1"
     stroke-miterlimit="10"
     d="m 803.30078,84.2305 c -0.69849,-7.3613 -1.77971,-10.4796 -2.10121,-0.7618 -3.90736,17.1264 3.22061,38.9379 -6.402,53.5902 -3.65857,-1.721 -13.61231,-19.7866 -4.67973,-15.6676 4.04517,1.2535 8.05926,3.1665 12.41797,2.4883"
     id="path4" />
  <path
     fill="none"
     stroke-width="2"
     stroke-linecap="round"
     stroke-linejoin="round"
     stroke="#000000"
     stroke-opacity="1"
     stroke-miterlimit="10"
     d="m 889.94141,65.8008 c -2.05198,-6.9679 -0.60966,14.3561 -1.6247,16.4297 -0.64194,9.9219 -1.32735,19.8755 -1.14431,29.8007"
     id="path5" />
  <path
     fill="none"
     stroke-width="2"
     stroke-linecap="round"
     stroke-linejoin="round"
     stroke="#000000"
     stroke-opacity="1"
     stroke-miterlimit="10"
     d="m 871.98437,100.4687 c 6.93581,-0.6857 16.68482,2.5116 23.9766,-1.7188"
     id="path6" />
  <path
     fill="none"
     stroke-width="2"
     stroke-linecap="round"
     stroke-linejoin="round"
     stroke="#000000"
     stroke-opacity="1"
     stroke-miterlimit="10"
     d="m 906.75391,54.0508 c 4.84103,16.156 -2.16986,39.0069 -4.96889,51.3904 6.6017,-13.9424 9.28476,-4.5957 7.26172,7.1598"
     id="path7" />
  <path
     fill="none"
     stroke-width="2"
     stroke-linecap="round"
     stroke-linejoin="round"
     stroke="#000000"
     stroke-opacity="1"
     stroke-miterlimit="10"
     d="m 922.51562,110.6016 c 4.91977,-3.9473 0.72376,-26.509 -5.44558,-7.8404 -8.75673,20.0744 19.30272,18.1595 26.75004,7.5464"
     id="path8" />
  <path
     fill="none"
     stroke-width="2"
     stroke-linecap="round"
     stroke-linejoin="round"
     stroke="#000000"
     stroke-opacity="1"
     stroke-miterlimit="10"
     d="m 990.72266,61.7812 c -0.28362,-2.7051 2.40534,16.4734 2.10135,19.9693 -0.0223,12.6475 1.09619,26.2985 -4.20308,38.1094"
     id="path9" />
  <path
     fill="none"
     stroke-width="2"
     stroke-linecap="round"
     stroke-linejoin="round"
     stroke="#000000"
     stroke-opacity="1"
     stroke-miterlimit="10"
     d="m 971.71094,103.9102 c 4.90217,-6.2001 18.89198,-2.5059 25.98422,-5.6419"
     id="path10" />
  <path
     fill="none"
     stroke-width="2"
     stroke-linecap="round"
     stroke-linejoin="round"
     stroke="#000000"
     stroke-opacity="1"
     stroke-miterlimit="10"
     d="m 1009.8281,96.3594 c -9.6284,-2.6995 -17.6345,13.3183 -3.6289,9.9412 8.1576,0.8879 16.9007,-13.3808 4.0113,-9.84 -1.6627,1.0023 -0.7456,2.4045 0.668,3.1485"
     id="path11" />
  <path
     fill="none"
     stroke-width="2"
     stroke-linecap="round"
     stroke-linejoin="round"
     stroke="#000000"
     stroke-opacity="1"
     stroke-miterlimit="10"
     d="m 1024.6289,96.75 c -1.2803,16.9733 -13.09,31.5762 -12.8925,49.1018"
     id="path12" />
  <path
     fill="none"
     stroke-width="2"
     stroke-linecap="round"
     stroke-linejoin="round"
     stroke="#000000"
     stroke-opacity="1"
     stroke-miterlimit="10"
     d="m 1016.1289,101.8086 c 5.175,-19.4557 35.2488,-0.9598 16.0503,10.4094 -6.2375,3.0339 -10.1428,-2.5779 -8.41,-8.4997"
     id="path13" />
  <path
     fill="none"
     stroke-width="2"
     stroke-linecap="round"
     stroke-linejoin="round"
     stroke="#000000"
     stroke-opacity="1"
     stroke-miterlimit="10"
     d="m 1118.5391,95.7891 c -23.821,-10.7147 -14.0223,39.855 3.4292,13.0876 4.7254,-4.71 -8.6237,-19.2159 -6.8668,-13.2768 0.7693,0.5965 1.4063,1.3622 2.289,1.8086"
     id="path14" />
  <path
     fill="none"
     stroke-width="2"
     stroke-linecap="round"
     stroke-linejoin="round"
     stroke="#000000"
     stroke-opacity="1"
     stroke-miterlimit="10"
     d="m 1127.8008,106.6797 c 2.88,-11.9691 16.7556,-3.0196 6.0199,6.2116"
     id="path15" />
  <path
     fill="none"
     stroke-width="2"
     stroke-linecap="round"
     stroke-linejoin="round"
     stroke="#000000"
     stroke-opacity="1"
     stroke-miterlimit="10"
     d="m 1209.5703,67.3203 c -1.7147,-1.5287 -2.085,17.3468 -1.5339,21.9686 -0.8503,12.3646 9.5809,-9.1602 12.6129,-11.1694 5.2125,-7.5212 11.3624,-14.4503 18.4414,-20.25"
     id="path16" />
  <path
     fill="none"
     stroke-width="2"
     stroke-linecap="round"
     stroke-linejoin="round"
     stroke="#000000"
     stroke-opacity="1"
     stroke-miterlimit="10"
     d="m 1211.4805,92.9219 c -3.4424,6.5804 -5.0052,14.8271 -4.8716,22.2578"
     id="path17" />
  <path
     fill="none"
     stroke-width="2"
     stroke-linecap="round"
     stroke-linejoin="round"
     stroke="#000000"
     stroke-opacity="1"
     stroke-miterlimit="10"
     d="m 788.39844,187.3008 c -5.77065,-0.3206 1.01844,15.1587 0.95308,19.7779 2.56091,14.628 -17.96514,1.9369 -16.04661,-5.6367"
     id="path18" />
  <path
     fill="none"
     stroke-width="2"
     stroke-linecap="round"
     stroke-linejoin="round"
     stroke="#000000"
     stroke-opacity="1"
     stroke-miterlimit="10"
     d="m 786.77344,189.2109 c 1.56405,-2.4066 6.427,0.0888 9.07422,-0.9494"
     id="path19" />
  <path
     fill="none"
     stroke-width="2"
     stroke-linecap="round"
     stroke-linejoin="round"
     stroke="#000000"
     stroke-opacity="1"
     stroke-miterlimit="10"
     d="m 799.85937,202.3984 c 6.39718,1.4826 17.2618,-21.134 6.68755,-17.2891 -10.6679,5.4009 -16.2264,34.7359 2.67574,25.9804"
     id="path20" />
  <path
     fill="none"
     stroke-width="2"
     stroke-linecap="round"
     stroke-linejoin="round"
     stroke="#000000"
     stroke-opacity="1"
     stroke-miterlimit="10"
     d="m 821.54687,193.5117 c -4.91954,14.4749 -5.99265,34.7637 -16.81235,44.8981 -0.69552,-0.7995 -0.84772,-1.8616 -1.05072,-2.8712"
     id="path21" />
  <path
     fill="none"
     stroke-width="2"
     stroke-linecap="round"
     stroke-linejoin="round"
     stroke="#000000"
     stroke-opacity="1"
     stroke-miterlimit="10"
     d="m 812.66016,212.4297 c 5.5068,-4.6906 8.92102,-18.0162 14.32801,-19.4883 9.91104,7.4702 -0.42796,39.6735 -12.70307,14.5197"
     id="path22" />
  <path
     fill="none"
     stroke-width="2"
     stroke-linecap="round"
     stroke-linejoin="round"
     stroke="#000000"
     stroke-opacity="1"
     stroke-miterlimit="10"
     d="m 853.16406,203.4492 c -7.06183,-11.406 -24.82087,0.7364 -15.09375,10.5117 4.53368,5.5122 17.10906,-4.2895 14.61719,-5.3507 -1.60298,1.9658 -4.64766,4.9466 -3.62887,7.6406"
     id="path23" />
  <path
     fill="none"
     stroke-width="2"
     stroke-linecap="round"
     stroke-linejoin="round"
     stroke="#000000"
     stroke-opacity="1"
     stroke-miterlimit="10"
     d="m 856.89062,220.0703 c -1.68468,-8.2074 9.23065,-15.2351 16.52343,-15.7635"
     id="path24" />
  <path
     fill="none"
     stroke-width="2"
     stroke-linecap="round"
     stroke-linejoin="round"
     stroke="#000000"
     stroke-opacity="1"
     stroke-miterlimit="10"
     d="m 887.07422,198.8594 c -8.37632,-10.757 -27.16761,19.5035 -11.9374,15.9612 4.32262,-1.7381 12.31098,-16.98 6.68359,-4.8789 -0.65543,2.4798 -2.82081,6.8806 0.86324,8.0273"
     id="path25" />
  <path
     fill="none"
     stroke-width="2"
     stroke-linecap="round"
     stroke-linejoin="round"
     stroke="#000000"
     stroke-opacity="1"
     stroke-miterlimit="10"
     d="m 906.75391,167.5312 c 0.0825,18.9051 -11.75759,36.8072 -16.23834,55.2071"
     id="path26" />
  <path
     fill="none"
     stroke-width="2"
     stroke-linecap="round"
     stroke-linejoin="round"
     stroke="#000000"
     stroke-opacity="1"
     stroke-miterlimit="10"
     d="m 886.98047,213 c 5.35656,-3.0778 13.49893,-2.6399 19.48823,-5.2513"
     id="path27" />
  <path
     fill="none"
     stroke-width="2"
     stroke-linecap="round"
     stroke-linejoin="round"
     stroke="#000000"
     stroke-opacity="1"
     stroke-miterlimit="10"
     d="m 912.19922,203.8281 c -4.9064,10.0688 18.82323,-3.5527 5.92182,-7.7389 -14.49651,1.974 -17.1621,37.3272 2.48438,24.3594"
     id="path28" />
  <path
     fill="none"
     stroke-width="2"
     stroke-linecap="round"
     stroke-linejoin="round"
     stroke="#000000"
     stroke-opacity="1"
     stroke-miterlimit="10"
     d="m 931.01953,195.7109 c 1.06731,11.3561 -0.86527,35.4248 -17.48414,22.9297 -0.94315,-1.0922 -1.65838,-2.2669 -1.91016,-3.7304"
     id="path29" />
  <path
     fill="none"
     stroke-width="2"
     stroke-linecap="round"
     stroke-linejoin="round"
     stroke="#000000"
     stroke-opacity="1"
     stroke-miterlimit="10"
     d="m 928.82031,205.9297 c 3.97089,-2.2989 8.1281,-3.4272 11.65625,-6.6806"
     id="path30" />
  <path
     fill="none"
     stroke-width="2"
     stroke-linecap="round"
     stroke-linejoin="round"
     stroke="#000000"
     stroke-opacity="1"
     stroke-miterlimit="10"
     d="m 1009.9219,173.7383 c 3.8952,4.0028 3.7314,21.5056 2.5797,29.6131 -0.9041,5.9962 -2.3298,11.9861 -4.6799,17.5781"
     id="path31" />
  <path
     fill="none"
     stroke-width="2"
     stroke-linecap="round"
     stroke-linejoin="round"
     stroke="#000000"
     stroke-opacity="1"
     stroke-miterlimit="10"
     d="m 999.22266,214.7187 c 5.54324,-2.9575 13.54214,-2.2573 18.14824,-7.7394"
     id="path32" />
  <path
     fill="none"
     stroke-width="2"
     stroke-linecap="round"
     stroke-linejoin="round"
     stroke="#000000"
     stroke-opacity="1"
     stroke-miterlimit="10"
     d="m 1025.9688,166.1914 c 7.5646,14.52 -3.0971,36.9717 -7.6404,49.1988 7.1251,-12.9142 15.2523,-12.1532 5.9219,4.9688"
     id="path33" />
  <path
     fill="none"
     stroke-width="2"
     stroke-linecap="round"
     stroke-linejoin="round"
     stroke="#000000"
     stroke-opacity="1"
     stroke-miterlimit="10"
     d="m 1034.1914,219.1094 c 3.3385,-2.4739 7.792,-24.5445 2.098,-9.1686 -7.0817,9.4935 0.237,23.914 11.269,13.6602 4.07,-3.0252 8.0899,-6.6264 10.6016,-11.0821"
     id="path34" />
  <path
     fill="none"
     stroke-width="2"
     stroke-linecap="round"
     stroke-linejoin="round"
     stroke="#000000"
     stroke-opacity="1"
     stroke-miterlimit="10"
     d="m 1095.6094,207.75 c 0.142,18.2267 -7.281,39.565 -16.532,53.1992"
     id="path35" />
  <path
     fill="none"
     stroke-width="2"
     stroke-linecap="round"
     stroke-linejoin="round"
     stroke="#000000"
     stroke-opacity="1"
     stroke-miterlimit="10"
     d="m 1095.1289,215.9609 c 4.4875,-11.6613 27.237,-6.0551 14.4298,5.1601 -5.145,9.5327 -25.2778,7.5719 -10.6094,-3.8205"
     id="path36" />
  <path
     fill="none"
     stroke-width="2"
     stroke-linecap="round"
     stroke-linejoin="round"
     stroke="#000000"
     stroke-opacity="1"
     stroke-miterlimit="10"
     d="m 1139.2617,208.1289 c -8.3473,-1.743 -29.5473,8.4972 -20.1522,16.6216 8.3728,4.9113 24.1175,-10.8585 9.1719,-10.8899 -1.9611,0.3414 -0.6346,2.2845 0.09,3.1523"
     id="path37" />
  <path
     fill="none"
     stroke-width="2"
     stroke-linecap="round"
     stroke-linejoin="round"
     stroke="#000000"
     stroke-opacity="1"
     stroke-miterlimit="10"
     d="m 1141.0781,208.8008 c 2.0629,7.8975 -2.6676,15.2403 -4.5891,22.6406"
     id="path38" />
  <path
     fill="none"
     stroke-width="2"
     stroke-linecap="round"
     stroke-linejoin="round"
     stroke="#000000"
     stroke-opacity="1"
     stroke-miterlimit="10"
     d="m 1152.4492,174.9805 c -0.9379,-5.6606 -3.3034,8.285 -2.0093,10.1289 l 0.2891,1.0508"
     id="path39" />
  <path
     fill="none"
     stroke-width="2"
     stroke-linecap="round"
     stroke-linejoin="round"
     stroke="#000000"
     stroke-opacity="1"
     stroke-miterlimit="10"
     d="m 1143.1797,227.1406 c -0.1976,-10.4595 21.163,-10.9614 11.2702,0.2887"
     id="path40" />
  <path
     fill="none"
     stroke-width="2"
     stroke-linecap="round"
     stroke-linejoin="round"
     stroke="#000000"
     stroke-opacity="1"
     stroke-miterlimit="10"
     d="m 1173.8398,183.7695 c 4.7437,-14.9403 6.1449,0.8275 2.782,7.4492 -5.999,10.8017 -7.9902,22.6893 -12.2305,34.0118"
     id="path41" />
  <path
     fill="none"
     stroke-width="2"
     stroke-linecap="round"
     stroke-linejoin="round"
     stroke="#000000"
     stroke-opacity="1"
     stroke-miterlimit="10"
     d="m 1164.3906,217.3984 c 1.8852,-3.35 6.5856,-1.9665 9.6485,-3.163"
     id="path42" />
  <path
     fill="none"
     stroke-width="2"
     stroke-linecap="round"
     stroke-linejoin="round"
     stroke="#000000"
     stroke-opacity="1"
     stroke-miterlimit="10"
     d="m 1199.5391,204.0195 c -4.4309,8.3315 -2.3893,26.5455 -22.1614,13.1805"
     id="path43" />
  <path
     fill="none"
     stroke-width="2"
     stroke-linecap="round"
     stroke-linejoin="round"
     stroke="#000000"
     stroke-opacity="1"
     stroke-miterlimit="10"
     d="m 1192.4688,204.5898 c 4.7103,2.8219 10.421,4.8568 16.0508,4.6921"
     id="path44" />
  <path
     fill="none"
     stroke-width="2"
     stroke-linecap="round"
     stroke-linejoin="round"
     stroke="#000000"
     stroke-opacity="1"
     stroke-miterlimit="10"
     d="m 1321.3398,52.1406 c 0.1162,0.392 3.099,16.6082 3.2506,21.5782 4.499,48.5017 -19.9066,92.8987 -42.04,133.9297 -0.025,0.6073 0.4299,-1.2635 0.5786,-1.2382"
     id="path45" />
</svg>
